<svg xmlns="http://www.w3.org/2000/svg" viewBox="0 0 587.25 200.00" role="img" aria-label="JR · R—Net Infrastructure">
  <title>JR · R—Net Infrastructure</title>
  <svg x="0.000" y="0.000" width="200" height="200" viewBox="0 0 2305.95 2305.99" overflow="visible"><path fill="none" d="M1728.14,897.45c0-73.04-27.05-139.87-71.7-191.01l-374.28,486.23h157.47c160.4,0,288.5-134.82,288.5-295.22Z" />
  <path fill="none" d="M846.43,1518.38c.43-3.21.83-6.44,1.15-9.69h-.01c-.31,3.26-.71,6.48-1.14,9.69Z" />
  <path fill="none" d="M1102.53,1205.4h-253.69v277.52c0,8.69-.48,17.28-1.27,25.78l148.79-160.08,119.73-128.8,8.69-9.36,4.71-5.06h-26.96Z" />
  <polygon fill="none" points="996.36 1092.51 848.85 935.64 848.85 1192.67 996.36 1192.67 996.36 1092.51" />
  <polygon fill="none" points="996.36 773.55 1135.35 773.55 1135.35 606.53 848.85 606.53 848.85 917.02 996.36 1073.89 996.36 773.55" />
  <path fill="#4A7A96" d="M1133.53,1219.75l1.81-1.94v518.25h-138.98v-368.73l128.48-138.22,8.69-9.36ZM1871.35,897.45c0-119.25-48.34-227.39-126.44-305.94,0,0,0,0,0,0l-88.48,114.92s0,0,0,.01c44.65,51.14,71.7,117.97,71.7,191.01,0,160.4-128.1,295.22-288.5,295.22h317.69c70.76-78.41,114.03-182.53,114.03-295.22ZM1553.22,1319.91c73.75-20.55,139.68-60.78,192.15-114.51h-488.33l8.28,9.13h0s106.07,117.02,106.07,117.02l362.4,404.51h192.23l-372.81-416.16ZM996.36,1073.89l60.53,64.38,78.45-70.46v-294.26h-138.98v300.34ZM996.36,1092.51v100.16l51.05-45.86-51.05-54.3Z" />
  <path fill="none" d="M1596.12,653.89c-45.7-29.92-100.32-47.36-158.91-47.36h-289.14v449.86l448.05-402.5Z" />
  <path fill="#8B5A3C" d="M657.07,1732.34l187.44-201.66c-16.29,89.12-77.76,162.94-165.8,194.85-7.17,2.6-14.39,4.86-21.64,6.81ZM705.63,783.36v409.31h143.22v-257.03l-143.22-152.29ZM705.63,1482.92c0,59.39-39.11,94.68-75.71,107.95-36.57,13.24-89.24,11.17-127.24-34.44l-44.02-52.74-109.99,91.72,44.02,52.74c50.38,60.44,122.21,93.19,196.87,93.19,15.12,0,30.36-1.37,45.57-4.11l212.44-228.54c.8-8.5,1.27-17.09,1.27-25.78v-277.52h-143.22v277.52ZM705.63,764.73l143.22,152.29v-310.49h286.5v-143.22h-429.71v301.42ZM1705.05,556.05c-73.83-58.08-166.86-92.74-267.84-92.74h-289.14v143.22h289.14c58.59,0,113.21,17.44,158.91,47.36l108.94-97.83s0,0,0,0Z" />
  <path fill="#D4CEBC" d="M705.63,783.34l-337.64-359.05,9.29-8.72,328.35,349.16,143.22,152.29,147.51,156.87,60.53,64.38-9.48,8.53-51.05-54.3-147.51-156.87-143.22-152.3ZM1195.91,1304.69l608.93,647.53,9.29-8.72-610.33-649.03-7.89,10.22ZM1757.32,1192.67h-598.61l474.27-510.23s0,0,0,0l97.46-104.85,114.06-122.71-3.97-5.08-5.49-3.45-114.1,122.76-97.57,104.97h0s0,0,0,0l-475.28,511.34V169.62h-12.73v1023.04H169.62v12.73h959.87l-4.71,5.06-8.69,9.36-119.73,128.8-148.79,160.08c-.32,3.25-.72,6.47-1.15,9.69.43-3.21.82-6.43,1.14-9.67l-212.42,228.53s0,0,0,0h0s-193.7,208.4-193.7,208.4l9.32,8.67,206.32-221.97,187.44-201.66c.56-3.06,1.03-6.15,1.48-9.25-.45,3.1-.92,6.19-1.47,9.26l151.84-163.36,128.48-138.22,8.69-9.36,1.81-1.94v918.56h12.73v-930.97h988.26v-12.73h-379.02Z" />
  <path fill="#F0B84A" d="M1265.32,1214.53h0s-61.52,79.95-61.52,79.95l-7.89,10.22-47.83,62.16v-161.45h108.96l8.28,9.13ZM1047.41,1146.81l-51.05,45.86h138.98v-124.85l-78.45,70.46-9.48,8.53ZM1739.35,386.19l91.08,57.26-125.37,112.6s0,0,0,0l-108.94,97.83-448.05,402.5v129.02l475.28-511.34h0s0,0,0,0l97.57-104.97,114.1-122.76,5.49,3.45,3.97,5.08-114.06,122.71-97.46,104.85s0,0,0,0l-474.27,510.23h123.45l374.28-486.23s0,0,0-.01l88.48-114.92s0,0,0,0l102.4-133.03,64.74,82.93,62.21-244.26-234.91,89.03Z" /></svg>
  <line x1="228" y1="25" x2="228" y2="175" stroke="#3D403A" stroke-width="1.4" />
  
    <g transform="translate(257.4, 44.423)">
      <g font-family="Outfit, ui-sans-serif, system-ui, sans-serif" font-weight="600" font-size="90" fill="#EDE8D8">
        <path transform="translate(0.0000, 65.7000)" d="M15.434999999999999 -26.4375V-35.955H30.105Q34.605 -35.955 37.08 -38.26125Q39.555 -40.567499999999995 39.555 -44.6175Q39.555 -48.33 37.113749999999996 -50.805Q34.6725 -53.28 30.1725 -53.28H15.434999999999999V-63.269999999999996H31.23Q37.35 -63.269999999999996 41.985 -60.87375Q46.62 -58.4775 49.19625 -54.32625Q51.7725 -50.175 51.7725 -44.82Q51.7725 -39.262499999999996 49.185 -35.144999999999996Q46.5975 -31.0275 41.9175 -28.7325Q37.2375 -26.4375 31.005 -26.4375ZM6.4575 0.0V-63.269999999999996H18.72V0.0ZM41.0175 0.0 20.115 -27.36 31.3875 -30.869999999999997 55.9125 0.0Z" /><path transform="translate(131.8500, 65.7000)" d="M6.4575 0.0V-63.269999999999996H15.0075L18.72 -50.985V0.0ZM50.22 0.0 12.645 -48.6 15.0075 -63.269999999999996 52.582499999999996 -14.67ZM50.22 0.0 46.7325 -11.8575V-63.269999999999996H58.995V0.0ZM79.11949999999999 0.0V-63.269999999999996H91.38199999999999V0.0ZM88.097 0.0V-10.8225H123.15199999999999V0.0ZM88.097 -27.0675V-37.53H120.02449999999999V-27.0675ZM88.097 -52.4475V-63.269999999999996H122.67949999999999V-52.4475ZM156.23649999999998 0.0V-61.919999999999995H168.49899999999997V0.0ZM136.05399999999997 -52.357499999999995V-63.269999999999996H188.70399999999998V-52.357499999999995Z" /></g>
      <svg x="54.900" y="19.350" width="65.25" height="45.000" viewBox="0 0 58 40" overflow="visible">
    <g stroke="#D49826" stroke-width="4" fill="none" stroke-linecap="butt">
      <circle cx="29" cy="22" r="5.2" />
      <line x1="3.2" y1="22" x2="22.2" y2="22" />
      <line x1="35.8" y1="22" x2="54.8" y2="22" />
      <line x1="29" y1="9.2" x2="29" y2="15.2" />
    </g>
  </svg>
    </g>
  <g transform="translate(257.4, 44.423)">
      <path transform="translate(4.6670, 107.1540)" d="M1.9998000000000002 0.0V-1.7820000000000003H4.95V-12.672H1.9998000000000002V-14.454H9.8802V-12.672H6.930000000000001V-1.7820000000000003H9.8802V0.0ZM24.596799999999998 0.0V-14.454H27.1312L31.4476 -2.2572Q31.388199999999998 -2.7720000000000002 31.3387 -3.5343000000000004Q31.2892 -4.296600000000001 31.2595 -5.1183000000000005Q31.229799999999997 -5.94 31.229799999999997 -6.672600000000001V-14.454H33.091V0.0H30.5368L26.259999999999998 -12.196800000000001Q26.299599999999998 -11.682 26.339199999999998 -10.9395Q26.3788 -10.197000000000001 26.408499999999997 -9.385200000000001Q26.4382 -8.573400000000001 26.4382 -7.860600000000001V0.0ZM47.5898 0.0V-14.454H56.2226V-12.6522H49.5104V-8.0982H55.7078V-6.3162H49.55V0.0ZM70.4442 0.0V-14.454H74.91899999999998Q76.2456 -14.454 77.23559999999999 -13.929300000000001Q78.22559999999999 -13.4046 78.77999999999999 -12.4641Q79.33439999999999 -11.5236 79.33439999999999 -10.256400000000001Q79.33439999999999 -8.7912 78.59189999999998 -7.7418Q77.84939999999999 -6.6924 76.6218 -6.2568L79.5324 0.0H77.37419999999999L74.62199999999999 -6.039000000000001H72.38459999999999V0.0ZM72.38459999999999 -7.7814000000000005H74.91899999999998Q76.02779999999998 -7.7814000000000005 76.67129999999999 -8.454600000000001Q77.31479999999999 -9.1278 77.31479999999999 -10.236600000000001Q77.31479999999999 -11.365200000000002 76.66139999999999 -12.038400000000001Q76.00799999999998 -12.7116 74.91899999999998 -12.7116H72.38459999999999ZM92.48679999999999 0.0 96.229 -14.454H98.8228L102.5452 0.0H100.5454L99.63459999999999 -3.7620000000000005H95.39739999999999L94.4866 0.0ZM95.79339999999999 -5.3856H99.23859999999999L98.20899999999999 -9.702Q97.91199999999999 -10.89 97.7338 -11.7216Q97.5556 -12.5532 97.51599999999999 -12.850200000000001Q97.4764 -12.5532 97.2982 -11.7216Q97.11999999999999 -10.89 96.8428 -9.7218ZM120.4892 0.198Q118.35079999999999 0.198 117.08359999999999 -0.9207000000000001Q115.8164 -2.0394 115.8164 -3.9996000000000005H117.7766Q117.7766 -2.8512000000000004 118.50919999999999 -2.1978000000000004Q119.2418 -1.5444000000000002 120.4892 -1.5444000000000002Q121.6772 -1.5444000000000002 122.3801 -2.2077000000000004Q123.083 -2.8710000000000004 123.083 -3.9798000000000004Q123.083 -4.811400000000001 122.6276 -5.4351Q122.1722 -6.058800000000001 121.3406 -6.2766L119.2022 -6.8508000000000004Q117.7964 -7.2468 116.97470000000001 -8.2863Q116.153 -9.325800000000001 116.153 -10.7514Q116.153 -11.9196 116.6777 -12.8007Q117.2024 -13.6818 118.1528 -14.166900000000002Q119.1032 -14.652000000000001 120.3506 -14.652000000000001Q121.6178 -14.652000000000001 122.5781 -14.166900000000002Q123.5384 -13.6818 124.07300000000001 -12.8106Q124.6076 -11.939400000000001 124.6076 -10.791H122.6672Q122.6672 -11.7414 122.02369999999999 -12.3354Q121.3802 -12.929400000000001 120.3506 -12.929400000000001Q119.321 -12.929400000000001 118.6973 -12.3354Q118.0736 -11.7414 118.0736 -10.791Q118.0736 -10.0188 118.48939999999999 -9.4941Q118.9052 -8.9694 119.6576 -8.751600000000002L121.8554 -8.1576Q123.3404 -7.7616000000000005 124.172 -6.642900000000001Q125.0036 -5.5242 125.0036 -3.9798000000000004Q125.0036 -2.7126 124.4492 -1.7721Q123.8948 -0.8316000000000001 122.8751 -0.3168000000000001Q121.8554 0.198 120.4892 0.198ZM142.3338 0.0V-12.672H138.4134V-14.454H148.1946V-12.672H144.294V0.0ZM162.02020000000002 0.0V-14.454H166.495Q167.82160000000002 -14.454 168.8116 -13.929300000000001Q169.8016 -13.4046 170.356 -12.4641Q170.9104 -11.5236 170.9104 -10.256400000000001Q170.9104 -8.7912 170.16790000000003 -7.7418Q169.42540000000002 -6.6924 168.1978 -6.2568L171.10840000000002 0.0H168.95020000000002L166.198 -6.039000000000001H163.9606V0.0ZM163.9606 -7.7814000000000005H166.495Q167.6038 -7.7814000000000005 168.2473 -8.454600000000001Q168.8908 -9.1278 168.8908 -10.236600000000001Q168.8908 -11.365200000000002 168.2374 -12.038400000000001Q167.584 -12.7116 166.495 -12.7116H163.9606ZM189.092 0.198Q187.0526 0.198 185.95370000000003 -0.9306000000000001Q184.8548 -2.0592 184.8548 -3.9996000000000005V-14.454H186.81500000000003V-3.9996000000000005Q186.81500000000003 -2.8512000000000004 187.3793 -2.1978000000000004Q187.9436 -1.5444000000000002 189.092 -1.5444000000000002Q190.22060000000002 -1.5444000000000002 190.80470000000003 -2.1978000000000004Q191.3888 -2.8512000000000004 191.3888 -3.9996000000000005V-14.454H193.34900000000002V-3.9996000000000005Q193.34900000000002 -2.0394 192.25010000000003 -0.9207000000000001Q191.15120000000002 0.198 189.092 0.198ZM212.14440000000002 0.198Q210.14460000000003 0.198 208.96650000000002 -0.9207000000000001Q207.78840000000002 -2.0394 207.78840000000002 -3.9996000000000005V-10.474200000000002Q207.78840000000002 -12.414600000000002 208.96650000000002 -13.5333Q210.14460000000003 -14.652000000000001 212.14440000000002 -14.652000000000001Q214.1244 -14.652000000000001 215.3025 -13.523400000000002Q216.4806 -12.394800000000002 216.4806 -10.474200000000002H214.52040000000002Q214.52040000000002 -11.6424 213.88680000000002 -12.276Q213.25320000000002 -12.909600000000001 212.14440000000002 -12.909600000000001Q211.0158 -12.909600000000001 210.3822 -12.276Q209.7486 -11.6424 209.7486 -10.474200000000002V-3.9996000000000005Q209.7486 -2.8116000000000003 210.3822 -2.1780000000000004Q211.0158 -1.5444000000000002 212.14440000000002 -1.5444000000000002Q213.25320000000002 -1.5444000000000002 213.88680000000002 -2.1780000000000004Q214.52040000000002 -2.8116000000000003 214.52040000000002 -3.9996000000000005H216.4806Q216.4806 -2.0592 215.3025 -0.9306000000000001Q214.1244 0.198 212.14440000000002 0.198ZM233.90980000000002 0.0V-12.672H229.98940000000002V-14.454H239.77060000000003V-12.672H235.87000000000003V0.0ZM257.77400000000006 0.198Q255.73460000000003 0.198 254.63570000000004 -0.9306000000000001Q253.53680000000003 -2.0592 253.53680000000003 -3.9996000000000005V-14.454H255.49700000000004V-3.9996000000000005Q255.49700000000004 -2.8512000000000004 256.0613 -2.1978000000000004Q256.6256 -1.5444000000000002 257.77400000000006 -1.5444000000000002Q258.9026 -1.5444000000000002 259.48670000000004 -2.1978000000000004Q260.0708 -2.8512000000000004 260.0708 -3.9996000000000005V-14.454H262.031V-3.9996000000000005Q262.031 -2.0394 260.9321 -0.9207000000000001Q259.83320000000003 0.198 257.77400000000006 0.198ZM276.4902 0.0V-14.454H280.96500000000003Q282.2916 -14.454 283.2816 -13.929300000000001Q284.27160000000003 -13.4046 284.826 -12.4641Q285.3804 -11.5236 285.3804 -10.256400000000001Q285.3804 -8.7912 284.6379 -7.7418Q283.8954 -6.6924 282.6678 -6.2568L285.5784 0.0H283.4202L280.668 -6.039000000000001H278.4306V0.0ZM278.4306 -7.7814000000000005H280.96500000000003Q282.0738 -7.7814000000000005 282.7173 -8.454600000000001Q283.3608 -9.1278 283.3608 -10.236600000000001Q283.3608 -11.365200000000002 282.7074 -12.038400000000001Q282.05400000000003 -12.7116 280.96500000000003 -12.7116H278.4306ZM299.5426 0.0V-14.454H307.9576V-12.6918H301.483V-8.3952H307.26460000000003V-6.6924H301.483V-1.7622000000000002H307.9576V0.0Z" fill="#8A8470" /></g>
</svg>
